<?xml version="1.0" encoding="UTF-8" standalone="no"?><!DOCTYPE svg PUBLIC "-//W3C//DTD SVG 1.1//EN" "http://www.w3.org/Graphics/SVG/1.1/DTD/svg11.dtd"><svg width="100%" height="100%" viewBox="0 0 114 86" version="1.1" xmlns="http://www.w3.org/2000/svg" xmlns:xlink="http://www.w3.org/1999/xlink" xml:space="preserve" xmlns:serif="http://www.serif.com/" style="fill-rule:evenodd;clip-rule:evenodd;stroke-linejoin:round;stroke-miterlimit:2;"><rect x="-2.656" y="0" width="119.174" height="86.442" style="fill:#262626;"/><g><path d="M8.834,12.102c-1.437,0.002 -2.619,1.184 -2.621,2.621l0,55.563c0.002,1.437 1.184,2.62 2.621,2.621l24.324,0c1.437,-0.001 2.619,-1.184 2.621,-2.621l0,-55.563c-0.002,-1.437 -1.184,-2.619 -2.621,-2.621l-24.324,0Z" style="fill:#262626;fill-rule:nonzero;"/><path d="M34.158,24.959l0,-4.459c-2.799,-0.642 -5.204,-2.432 -6.623,-4.929l0,0c-0.336,0.25 -0.745,0.384 -1.164,0.383l-3.541,0c1.92,4.785 6.233,8.214 11.328,9.005Z" style="fill:#404040;fill-rule:nonzero;"/><path d="M34.158,20.245l0,-4.283c0,-0.001 0,-0.001 0,-0.001c0,-1.308 -1.077,-2.385 -2.385,-2.385c0,0 -0.001,0 -0.001,0l-3.437,0l0,0.414c0,0.535 -0.219,1.049 -0.606,1.419c1.372,2.438 3.705,4.193 6.429,4.836Z" style="fill:#404040;fill-rule:nonzero;"/><path d="M17.623,15.954l-2.214,0c-1.077,0 -1.964,-0.887 -1.964,-1.964l0,-0.414l-3.225,0c0,0 0,0 0,0c-1.309,0 -2.386,1.077 -2.386,2.386c0,0 0,0 0,0l0,53.087c0,0.001 0,0.002 0,0.003c0,1.306 1.075,2.382 2.382,2.382c0.001,0 0.003,0 0.004,0l21.552,0c0.098,0 0.197,-0.006 0.294,-0.019c1.188,-0.148 2.09,-1.168 2.092,-2.366l0,-39.08c-7.839,-0.908 -14.37,-6.501 -16.535,-14.015Z" style="fill:#404040;fill-rule:nonzero;"/><path d="M22.562,15.954l-4.68,0c2.154,7.375 8.573,12.861 16.276,13.765l0,-4.506c-5.232,-0.8 -9.658,-4.334 -11.596,-9.259Z" style="fill:#404040;fill-rule:nonzero;"/><path d="M32.516,55.737l-22.113,0c-0.225,0 -0.409,-0.185 -0.41,-0.409l0,-5.486c0.001,-0.224 0.185,-0.409 0.41,-0.409l22.113,0c0.225,0 0.409,0.185 0.41,0.409l0,5.486c-0.001,0.224 -0.185,0.409 -0.41,0.409Zm-22.113,-6.14c-0.135,0 -0.246,0.111 -0.246,0.245l0,5.486c0,0.134 0.111,0.245 0.246,0.245l22.113,0c0.135,0 0.246,-0.111 0.246,-0.245l0,-5.486c0,-0.134 -0.111,-0.245 -0.246,-0.245l-22.113,0Z" style="fill:#e6e6e6;fill-rule:nonzero;"/><circle cx="13.269" cy="52.585" r="1.72" style="fill:#1db954;"/><path d="M17.242,51.438c-0.158,0 -0.287,0.13 -0.287,0.287c0,0.157 0.129,0.287 0.287,0.287l13.513,0c0.157,0 0.287,-0.13 0.287,-0.287c0,-0.157 -0.13,-0.287 -0.287,-0.287l-13.513,0Z" style="fill:#e6e6e6;fill-rule:nonzero;"/><path d="M17.242,53.158c-0.158,0 -0.287,0.13 -0.287,0.287c0,0.157 0.129,0.287 0.287,0.287l13.513,0c0.157,0 0.287,-0.13 0.287,-0.287c0,-0.157 -0.13,-0.287 -0.287,-0.287l-13.513,0Z" style="fill:#e6e6e6;fill-rule:nonzero;"/><path d="M32.516,64.91l-22.113,0c-0.225,0 -0.409,-0.185 -0.41,-0.41l0,-5.485c0.001,-0.224 0.185,-0.409 0.41,-0.409l22.113,0c0.225,0 0.409,0.185 0.41,0.409l0,5.485c-0.001,0.225 -0.185,0.41 -0.41,0.41Zm-22.113,-6.141c-0.135,0.001 -0.246,0.111 -0.246,0.246l0,5.485c0,0.135 0.111,0.246 0.246,0.246l22.113,0c0.135,0 0.246,-0.111 0.246,-0.246l0,-5.485c0,-0.135 -0.111,-0.245 -0.246,-0.246l-22.113,0Z" style="fill:#e6e6e6;fill-rule:nonzero;"/><circle cx="13.269" cy="61.758" r="1.72" style="fill:#1db954;"/><path d="M17.242,60.611c-0.158,0 -0.287,0.13 -0.287,0.287c0,0.157 0.129,0.286 0.287,0.286l13.513,0c0.157,0 0.287,-0.129 0.287,-0.286c0,-0.157 -0.13,-0.287 -0.287,-0.287l-13.513,0Z" style="fill:#e6e6e6;fill-rule:nonzero;"/><path d="M17.242,62.331c-0.158,0 -0.287,0.129 -0.287,0.287c0,0.157 0.129,0.286 0.287,0.286l13.513,0c0.157,0 0.287,-0.129 0.287,-0.286c0,-0.158 -0.13,-0.287 -0.287,-0.287l-13.513,0Z" style="fill:#e6e6e6;fill-rule:nonzero;"/><path d="M20.994,44.354c-0.001,0 -0.002,0 -0.003,0c-4.267,0 -7.777,-3.511 -7.777,-7.777c0,-0.001 0,-0.002 0,-0.003c0,-0.017 0,-0.034 0.001,-0.05c0.023,-4.261 3.513,-7.731 7.779,-7.731c4.269,0.001 7.781,3.513 7.781,7.782c0,2.952 -1.681,5.661 -4.326,6.972c-1.073,0.534 -2.256,0.811 -3.455,0.807Zm0,-15.397c-4.158,0.009 -7.583,3.414 -7.616,7.572c-0.001,0.018 -0.001,0.031 -0.001,0.045c0,0 0,0.001 0,0.002c0,4.178 3.439,7.617 7.617,7.617c3.794,0 7.039,-2.835 7.548,-6.595c0.046,-0.34 0.069,-0.683 0.069,-1.026c0,-4.177 -3.437,-7.615 -7.615,-7.615c0,0 -0.001,0 -0.002,0Z" style="fill:#e6e6e6;fill-rule:nonzero;"/><path d="M24.518,36.95l-5.326,-3.074c-0.025,-0.015 -0.053,-0.022 -0.082,-0.022c-0.089,0 -0.163,0.074 -0.163,0.164l0,6.149c0,0.09 0.074,0.164 0.163,0.164c0.029,0 0.057,-0.008 0.082,-0.022l5.326,-3.075c0.05,-0.029 0.082,-0.083 0.082,-0.142c0,-0.058 -0.032,-0.112 -0.082,-0.142l-5.326,-3.074c-0.025,-0.015 -0.053,-0.022 -0.082,-0.022c-0.089,0 -0.163,0.074 -0.163,0.164l0,6.149c0,0.09 0.074,0.164 0.163,0.164c0.029,0 0.057,-0.008 0.082,-0.022l5.326,-3.075c0.05,-0.029 0.082,-0.083 0.082,-0.142c0,-0.058 -0.032,-0.112 -0.082,-0.142Z" style="fill:#1db954;fill-rule:nonzero;"/><path d="M53.468,35.878l-3.604,0.409c0.049,-1.107 -0.044,-2.139 -0.41,-3.03l2.949,-1.065c-0.264,1.102 0.232,2.36 1.065,3.686Z" style="fill:#ffb8b8;fill-rule:nonzero;"/><path d="M53.902,48.17l1.167,2.083c0.091,0.162 0.138,0.344 0.138,0.529c0,0.397 -0.218,0.764 -0.567,0.953c-0.158,0.085 -0.335,0.13 -0.515,0.13c-0.556,0 -1.025,-0.427 -1.078,-0.98l-0.19,-1.991l-0.647,-7.601l-1.103,-5l2.291,-0.65l1.066,5.622l-0.562,6.905Z" style="fill:#ffd7b8;fill-rule:nonzero;"/><path d="M55.843,70.358l-1.475,-0.082l-3.276,-14.579l-6.961,14.661l-1.474,-0.082l4.259,-22.605l0.081,-4.095l5.324,-0.327c1.99,2.188 3.116,4.451 3.276,6.797l0.246,20.312Z" style="fill:#404040;fill-rule:nonzero;"/><path d="M44.011,72.917c-0.279,0.128 -0.547,-0.935 -0.748,-0.673c-0.674,0.879 -2.245,0.604 -2.238,0.502c-0.169,-0.055 -0.285,-0.214 -0.285,-0.392c0,-0.049 0.009,-0.098 0.026,-0.144c0.047,-0.127 0.154,-0.222 0.285,-0.255l0.701,-0.175l1.099,-1.934l1.122,-0.075c0.507,0.645 0.69,1.489 0.496,2.287c-0.101,0.416 -0.259,0.768 -0.458,0.859Z" style="fill:#404040;fill-rule:nonzero;"/><path d="M55.648,72.917c-0.279,0.128 -0.548,-0.935 -0.748,-0.673c-0.777,1.013 -2.291,0.663 -2.238,0.502c-0.17,-0.055 -0.286,-0.214 -0.286,-0.392c0,-0.049 0.009,-0.098 0.026,-0.144c0.048,-0.127 0.155,-0.222 0.286,-0.255l0.7,-0.175l1.099,-1.934l1.199,-0.151l0.03,0.049c0.468,0.755 0.589,1.676 0.331,2.526c-0.1,0.32 -0.235,0.572 -0.399,0.647Z" style="fill:#404040;fill-rule:nonzero;"/><circle cx="50.192" cy="31.455" r="2.539" style="fill:#ffd7b8;"/><path d="M52.485,43.658l-5.488,0.328l-0.491,-3.113c-0.509,-1.399 0.127,-2.684 1.147,-3.931l2.129,-2.375l2.948,-0.082c0.809,0.266 1.394,0.978 1.499,1.822c0.212,1.741 -0.106,3.506 -0.912,5.064l-0.832,2.287Z" style="fill:#1db954;fill-rule:nonzero;"/><path d="M46.506,50.62l0.393,2.355c0.009,0.059 0.014,0.119 0.014,0.178c0,0.533 -0.393,0.991 -0.92,1.071c-0.054,0.008 -0.108,0.012 -0.162,0.012c-0.594,0 -1.083,-0.489 -1.083,-1.083c0,-0.09 0.011,-0.18 0.034,-0.268l0.496,-1.938l1.965,-7.371l0.655,-5.078l2.375,0.164l-0.9,5.651l-2.867,6.307Z" style="fill:#ffd7b8;fill-rule:nonzero;"/><path d="M53.236,41.242l-0.059,0c-1.107,-0.96 -2.069,-2.035 -1.292,-3.382c-0.659,-1.673 -1.394,-3.411 -1.35,-4.485c0.033,-0.795 -0.198,-1.587 -0.716,-2.192c-0.7,-0.818 -0.856,-1.183 -2.135,-0.874c-0.001,-0.011 -0.001,-0.022 -0.001,-0.034c0,-1.329 1.095,-2.424 2.424,-2.424c0.03,0 0.059,0.001 0.088,0.002l0.8,0.029c0.611,0.022 2.565,0.272 2.985,0.676c0.43,0.428 0.637,1.034 0.557,1.636c-0.079,0.667 0.132,1.256 0.694,1.75c1.077,1.114 1.521,2.269 0.91,3.493c-0.46,1.297 -0.438,2.364 0.75,2.877c0.386,1.482 -2.124,2.928 -3.655,2.928Z" style="fill:#404040;fill-rule:nonzero;"/><path d="M50.519,39.481c-1.016,-0.778 -2.027,-0.839 -3.03,-0.082l0.274,-3.11c-0.016,-0.908 0.703,-1.675 1.61,-1.718c0.027,-0.001 0.054,-0.002 0.081,-0.002c0.927,0 1.69,0.763 1.69,1.691c0,0.009 0,0.019 0,0.028l-0.625,3.193Z" style="fill:#1db954;fill-rule:nonzero;"/><ellipse cx="50.232" cy="31.946" rx="0.328" ry="0.614" style="fill:#ffb8b8;"/><path d="M50.97,30.535l0,-2.725c0,-0.134 -0.111,-0.245 -0.246,-0.245l-0.492,0c-0.134,0 -0.245,0.111 -0.245,0.245l0,2.561c-0.749,0.121 -1.304,0.774 -1.304,1.532c0,0.852 0.701,1.553 1.553,1.553c0.852,0 1.553,-0.701 1.553,-1.553c0,-0.571 -0.316,-1.098 -0.819,-1.368l0,0Z" style="fill:#1db954;fill-rule:nonzero;"/><circle cx="50.314" cy="31.905" r="0.737" style="fill:#fff;"/></g><g><path d="M72.823,29.865c-1.024,0 -1.828,0.232 -2.412,0.696c-0.584,0.464 -0.876,1.096 -0.876,1.896c0,0.576 0.19,1.064 0.57,1.464c0.38,0.4 1.03,0.764 1.95,1.092l0.948,0.324c0.472,0.16 0.708,0.392 0.708,0.696c0,0.168 -0.088,0.306 -0.264,0.414c-0.176,0.108 -0.416,0.162 -0.72,0.162c-0.808,0 -1.66,-0.328 -2.556,-0.984l-0.948,1.884c0.408,0.32 0.922,0.57 1.542,0.75c0.62,0.18 1.27,0.27 1.95,0.27c1.096,0 1.956,-0.23 2.58,-0.69c0.624,-0.46 0.936,-1.098 0.936,-1.914c0,-0.672 -0.218,-1.21 -0.654,-1.614c-0.436,-0.404 -1.074,-0.75 -1.914,-1.038l-0.936,-0.324c-0.456,-0.16 -0.684,-0.38 -0.684,-0.66c0,-0.336 0.296,-0.504 0.888,-0.504c0.352,0 0.738,0.056 1.158,0.168c0.42,0.112 0.778,0.26 1.074,0.444l0.84,-1.764c-0.92,-0.512 -1.98,-0.768 -3.18,-0.768Z" style="fill:#fff;fill-rule:nonzero;"/><path d="M81.331,31.953c-0.376,0 -0.73,0.084 -1.062,0.252c-0.332,0.168 -0.578,0.388 -0.738,0.66l0,-0.78l-2.472,0l0,9l2.472,0l0,-3.48c0.16,0.28 0.406,0.504 0.738,0.672c0.332,0.168 0.686,0.252 1.062,0.252c0.888,0 1.604,-0.302 2.148,-0.906c0.544,-0.604 0.816,-1.398 0.816,-2.382c0,-0.984 -0.272,-1.778 -0.816,-2.382c-0.544,-0.604 -1.26,-0.906 -2.148,-0.906Zm-0.672,1.884c0.352,0 0.634,0.13 0.846,0.39c0.212,0.26 0.318,0.598 0.318,1.014c0,0.416 -0.106,0.754 -0.318,1.014c-0.212,0.26 -0.494,0.39 -0.846,0.39c-0.352,0 -0.634,-0.13 -0.846,-0.39c-0.212,-0.26 -0.318,-0.598 -0.318,-1.014c0,-0.416 0.106,-0.754 0.318,-1.014c0.212,-0.26 0.494,-0.39 0.846,-0.39Z" style="fill:#fff;fill-rule:nonzero;"/><path d="M88.531,31.953c-1.088,0 -1.968,0.302 -2.64,0.906c-0.672,0.604 -1.008,1.398 -1.008,2.382c0,0.984 0.336,1.778 1.008,2.382c0.672,0.604 1.552,0.906 2.64,0.906c1.088,0 1.968,-0.302 2.64,-0.906c0.672,-0.604 1.008,-1.398 1.008,-2.382c0,-0.984 -0.336,-1.778 -1.008,-2.382c-0.672,-0.604 -1.552,-0.906 -2.64,-0.906Zm0,1.92c0.408,0 0.736,0.126 0.984,0.378c0.248,0.252 0.372,0.582 0.372,0.99c0,0.408 -0.124,0.738 -0.372,0.99c-0.248,0.252 -0.576,0.378 -0.984,0.378c-0.408,0 -0.736,-0.126 -0.984,-0.378c-0.248,-0.252 -0.372,-0.582 -0.372,-0.99c0,-0.408 0.124,-0.738 0.372,-0.99c0.248,-0.252 0.576,-0.378 0.984,-0.378Z" style="fill:#fff;fill-rule:nonzero;"/><path d="M95.803,30.537l-1.776,0l-0.372,1.548l-1.128,0l0,1.788l0.864,0l0,2.628c0,0.608 0.204,1.098 0.612,1.47c0.408,0.372 0.94,0.558 1.596,0.558c0.408,0 0.808,-0.058 1.2,-0.174c0.392,-0.116 0.704,-0.27 0.936,-0.462l-0.54,-1.524c-0.24,0.16 -0.524,0.24 -0.852,0.24c-0.16,0 -0.29,-0.05 -0.39,-0.15c-0.1,-0.1 -0.15,-0.23 -0.15,-0.39l0,-2.196l1.62,0l0,-1.788l-1.62,0l0,-1.548Z" style="fill:#fff;fill-rule:nonzero;"/><path d="M100.843,29.721l-2.592,0l0,1.728l2.592,0l0,-1.728Zm-0.06,2.364l-2.472,0l0,6.312l2.472,0l0,-6.312Z" style="fill:#fff;fill-rule:nonzero;"/><path d="M69.589,45.369c-1.024,0 -1.828,0.232 -2.412,0.696c-0.584,0.464 -0.876,1.096 -0.876,1.896c0,0.576 0.19,1.064 0.57,1.464c0.38,0.4 1.03,0.764 1.95,1.092l0.948,0.324c0.472,0.16 0.708,0.392 0.708,0.696c0,0.168 -0.088,0.306 -0.264,0.414c-0.176,0.108 -0.416,0.162 -0.72,0.162c-0.808,0 -1.66,-0.328 -2.556,-0.984l-0.948,1.884c0.408,0.32 0.922,0.57 1.542,0.75c0.62,0.18 1.27,0.27 1.95,0.27c1.096,0 1.956,-0.23 2.58,-0.69c0.624,-0.46 0.936,-1.098 0.936,-1.914c0,-0.672 -0.218,-1.21 -0.654,-1.614c-0.436,-0.404 -1.074,-0.75 -1.914,-1.038l-0.936,-0.324c-0.456,-0.16 -0.684,-0.38 -0.684,-0.66c0,-0.336 0.296,-0.504 0.888,-0.504c0.352,0 0.738,0.056 1.158,0.168c0.42,0.112 0.778,0.26 1.074,0.444l0.84,-1.764c-0.92,-0.512 -1.98,-0.768 -3.18,-0.768Z" style="fill:#1db954;fill-rule:nonzero;"/><path d="M76.357,45.225l-2.592,0l0,1.728l2.592,0l0,-1.728Zm-0.06,2.364l-2.472,0l0,6.312l2.472,0l0,-6.312Z" style="fill:#1db954;fill-rule:nonzero;"/><path d="M80.113,47.457c-0.88,0 -1.588,0.302 -2.124,0.906c-0.536,0.604 -0.804,1.398 -0.804,2.382c0,0.984 0.268,1.778 0.804,2.382c0.536,0.604 1.244,0.906 2.124,0.906c0.392,0 0.758,-0.084 1.098,-0.252c0.34,-0.168 0.59,-0.388 0.75,-0.66l0,0.072c-0.016,0.52 -0.172,0.936 -0.468,1.248c-0.296,0.312 -0.684,0.468 -1.164,0.468c-0.584,0 -1.232,-0.208 -1.944,-0.624l-0.9,1.62c0.36,0.248 0.828,0.446 1.404,0.594c0.576,0.148 1.156,0.222 1.74,0.222c1.104,0 1.994,-0.334 2.67,-1.002c0.676,-0.668 1.014,-1.546 1.014,-2.634l0,-5.496l-2.4,0l0,0.792c-0.16,-0.28 -0.406,-0.504 -0.738,-0.672c-0.332,-0.168 -0.686,-0.252 -1.062,-0.252Zm0.672,1.848c0.352,0 0.634,0.132 0.846,0.396c0.212,0.264 0.318,0.612 0.318,1.044c0,0.432 -0.106,0.78 -0.318,1.044c-0.212,0.264 -0.494,0.396 -0.846,0.396c-0.352,0 -0.638,-0.132 -0.858,-0.396c-0.22,-0.264 -0.33,-0.612 -0.33,-1.044c0,-0.432 0.11,-0.78 0.33,-1.044c0.22,-0.264 0.506,-0.396 0.858,-0.396Z" style="fill:#1db954;fill-rule:nonzero;"/><path d="M89.677,47.457c-0.352,0 -0.69,0.084 -1.014,0.252c-0.324,0.168 -0.57,0.388 -0.738,0.66l0,-0.78l-2.472,0l0,6.312l2.472,0l0,-3.516c0,-0.312 0.066,-0.558 0.198,-0.738c0.132,-0.18 0.31,-0.27 0.534,-0.27c0.224,0 0.404,0.09 0.54,0.27c0.136,0.18 0.204,0.426 0.204,0.738l0,3.516l2.472,0l0,-3.696c0,-0.824 -0.202,-1.488 -0.606,-1.992c-0.404,-0.504 -0.934,-0.756 -1.59,-0.756Z" style="fill:#1db954;fill-rule:nonzero;"/><path d="M95.989,47.457c-1,0 -1.804,0.3 -2.412,0.9c-0.608,0.6 -0.912,1.384 -0.912,2.352c0,1.008 0.328,1.814 0.984,2.418c0.656,0.604 1.52,0.906 2.592,0.906c1.032,0 1.888,-0.232 2.568,-0.696l-0.816,-1.476c-0.352,0.216 -0.84,0.324 -1.464,0.324c-0.464,0 -0.84,-0.088 -1.128,-0.264c-0.288,-0.176 -0.432,-0.404 -0.432,-0.684l4.284,0c0.04,-0.136 0.06,-0.332 0.06,-0.588c0,-0.944 -0.308,-1.712 -0.924,-2.304c-0.616,-0.592 -1.416,-0.888 -2.4,-0.888Zm0.012,1.656c0.296,0 0.546,0.09 0.75,0.27c0.204,0.18 0.314,0.418 0.33,0.714l-2.112,0c0.016,-0.296 0.118,-0.534 0.306,-0.714c0.188,-0.18 0.43,-0.27 0.726,-0.27Z" style="fill:#1db954;fill-rule:nonzero;"/><path d="M104.221,47.457c-0.464,0 -0.858,0.176 -1.182,0.528c-0.324,0.352 -0.522,0.82 -0.594,1.404l0,-1.8l-2.376,0l0,6.312l2.472,0l0,-2.748c0,-0.408 0.114,-0.736 0.342,-0.984c0.228,-0.248 0.53,-0.372 0.906,-0.372c0.272,0 0.488,0.016 0.648,0.048l0,-2.364l-0.216,-0.024Z" style="fill:#1db954;fill-rule:nonzero;"/></g></svg>